<?xml version="1.0" encoding="UTF-8"?>
<svg id="Layer_2" data-name="Layer 2" xmlns="http://www.w3.org/2000/svg" viewBox="0 0 48.36 32.94">
  <defs>
    <style>
      .cls-1 {
        fill: #5eb664;
      }

      .cls-2 {
        fill: #29532d;
      }

      .cls-3 {
        fill: #1a2024;
      }
    </style>
  </defs>
  <g id="Layer_3" data-name="Layer 3">
    <g>
      <path class="cls-1" d="M35.15,14.66l.05-1.56.05-1.7.05-1.63,1.19.97,4.71-5.8,2.04-2.42c.63-.75,1.05-1.63.52-2.52,1.32.89,2.52,2.17,3.15,3.58.24.54.27,1.11.15,1.67-.16.72-.53,1.27-.99,1.83l-5.59,6.85,1.13.9-6.5,1.63.05-1.81Z"/>
      <path class="cls-2" d="M33.15,25.26c-.26-.03-.43-.07-.56-.2-.15-.15-.18-.36-.18-.59.1-.4.26-.79.55-1.11l2.64-2.96h12.76s0,4.86,0,4.86h-15.21Z"/>
      <path class="cls-2" d="M43.09,2.21l-2.24,2.63h-2.79s-9.84,0-9.84,0V.04s14.66,0,14.66,0c.3.06.55.13.71.37.12.18.11.43.09.65-.12.42-.3.79-.6,1.14Z"/>
      <path class="cls-1" d="M32.33,25.4c-.29-.16-.54-.32-.79-.54-.88-.81-1.65-1.73-2.21-2.78-.38-.71-.42-1.47-.09-2.19.21-.46.46-.88.79-1.28l2.76-3.34,4.18,2.98-1.65,1.95-2.45,2.83c-.58.72-1.06,1.51-.55,2.39Z"/>
    </g>
    <g>
      <path class="cls-1" d="M15.39,15.13l-2.7-9.57-.56-2.43c-.12-.5-.34-.93-.63-1.34-.68-.98-1.59-1.1-2.76-1.09,1.74-.57,3.8-.71,5.49-.03,1.35.54,2.38,1.68,2.88,3.05l6.67,21.58h-5.47s-2.91-10.17-2.91-10.17Z"/>
      <path class="cls-2" d="M8.53,14.65l-4.8-1.49L6.63,3.57c.33-1.05.89-2.25,1.99-2.54.78-.2,1.67-.01,2.29.52.52.45.8,1.09,1.01,1.73l-.7,2.43-2.69,8.94Z"/>
      <polygon class="cls-2" points="5.44 25.39 0 25.39 2.1 18.53 .74 18.1 6.16 14.19 8.45 20.46 7 20.04 5.44 25.39"/>
      <polygon class="cls-2" points="14.87 18.2 8.88 18.22 9.47 15.72 14.34 15.72 14.87 18.2"/>
    </g>
    <path class="cls-3" d="M24.02,30.92l3.21-3.27c.59-.59.99-1.16.99-1.74,0-.67-.28-1.15-.93-1.15s-.93.46-.93,1.16v.22h-2.33v-.14c0-2.08,1.24-3.41,3.27-3.41s3.27,1.41,3.27,3.34c0,1.29-.61,2.1-1.6,3.07l-1.89,1.85h3.37v2.09h-6.44v-2.02Z"/>
  </g>
</svg>