<?xml version="1.0" encoding="UTF-8"?>
<svg id="Layer_2" data-name="Layer 2" xmlns="http://www.w3.org/2000/svg" viewBox="0 0 205.82 33.52">
  <defs>
    <style>
      .cls-1 {
        fill: #5eb664;
      }

      .cls-2 {
        fill: #29532d;
      }

      .cls-3 {
        fill: #1a2024;
      }
    </style>
  </defs>
  <g id="Layer_3" data-name="Layer 3">
    <g>
      <g>
        <path class="cls-1" d="M35.15,15.25l.05-1.56.05-1.7.05-1.63,1.19.97,4.71-5.8,2.04-2.42c.63-.75,1.05-1.63.52-2.52,1.32.89,2.52,2.17,3.15,3.58.24.54.27,1.11.15,1.67-.16.72-.53,1.27-.99,1.83l-5.59,6.85,1.13.9-6.5,1.63.05-1.81Z"/>
        <path class="cls-2" d="M33.15,25.85c-.26-.03-.43-.07-.56-.2-.15-.15-.18-.36-.18-.59.1-.4.26-.79.55-1.11l2.64-2.96h12.76s0,4.86,0,4.86h-15.21Z"/>
        <path class="cls-2" d="M43.09,2.8l-2.24,2.63h-2.79s-9.84,0-9.84,0V.63s14.66,0,14.66,0c.3.06.55.13.71.37.12.18.11.43.09.65-.12.42-.3.79-.6,1.14Z"/>
        <path class="cls-1" d="M32.33,25.98c-.29-.16-.54-.32-.79-.54-.88-.81-1.65-1.73-2.21-2.78-.38-.71-.42-1.47-.09-2.19.21-.46.46-.88.79-1.28l2.76-3.34,4.18,2.98-1.65,1.95-2.45,2.83c-.58.72-1.06,1.51-.55,2.39Z"/>
      </g>
      <g>
        <path class="cls-1" d="M15.39,15.72l-2.7-9.57-.56-2.43c-.12-.5-.34-.93-.63-1.34-.68-.98-1.59-1.1-2.76-1.09,1.74-.57,3.8-.71,5.49-.03,1.35.54,2.38,1.68,2.88,3.05l6.67,21.58h-5.47s-2.91-10.17-2.91-10.17Z"/>
        <path class="cls-2" d="M8.53,15.24l-4.8-1.49,2.9-9.6c.33-1.05.89-2.25,1.99-2.54.78-.2,1.67-.01,2.29.52.52.45.8,1.09,1.01,1.73l-.7,2.43-2.69,8.94Z"/>
        <polygon class="cls-2" points="5.44 25.97 0 25.97 2.1 19.12 .74 18.69 6.16 14.77 8.45 21.05 7 20.63 5.44 25.97"/>
        <polygon class="cls-2" points="14.87 18.79 8.88 18.81 9.47 16.31 14.34 16.31 14.87 18.79"/>
      </g>
      <g>
        <path class="cls-3" d="M54.62,2.23h9.72c5.89,0,8.47,3.23,8.47,7.66,0,3.65-1.74,6.17-4.86,7.2l5.71,8.33h-5.39l-4.93-7.84h-4.18v7.84h-4.54V2.23ZM64.4,13.37c2.87,0,3.83-1.49,3.83-3.48s-.96-3.44-3.83-3.44h-5.25v6.92h5.25Z"/>
        <path class="cls-3" d="M74.05,16.67c0-5.32,3.9-9.22,9.43-9.22s9.36,3.9,9.36,9.22v1.49h-14.36c.57,2.55,2.52,3.9,5,3.9,1.88,0,3.26-.53,4.15-1.67h4.5c-1.31,3.33-4.5,5.5-8.65,5.5-5.53,0-9.43-3.9-9.43-9.22ZM88.37,14.79c-.67-2.34-2.59-3.51-4.89-3.51s-4.22,1.21-4.89,3.51h9.79Z"/>
        <path class="cls-3" d="M93.62,16.67c0-5.32,3.9-9.22,9.43-9.22,4.75,0,8.23,2.87,9.08,7.02h-4.25c-.75-1.88-2.52-3.08-4.82-3.08-3.08,0-5.18,2.2-5.18,5.28s2.09,5.28,5.18,5.28c2.3,0,4.08-1.21,4.82-3.08h4.25c-.85,4.15-4.33,7.02-9.08,7.02-5.53,0-9.43-3.9-9.43-9.22Z"/>
        <path class="cls-3" d="M113.76,27.34h4.22c.71,1.63,2.09,2.38,4.22,2.38,2.87,0,4.5-1.38,4.5-4.79v-2.2c-1.06,1.92-2.91,2.94-5.21,2.94-4.04,0-7.87-2.62-7.87-8.87V7.91h4.22v8.9c0,3.33,1.77,4.93,4.43,4.93s4.43-1.67,4.43-4.93V7.91h4.22v16.92c0,6.1-3.87,8.55-8.72,8.55-4.08,0-7.45-1.88-8.44-6.03Z"/>
        <path class="cls-3" d="M132.98,16.67c0-5.32,3.9-9.22,9.43-9.22,4.75,0,8.23,2.87,9.08,7.02h-4.25c-.75-1.88-2.52-3.08-4.82-3.08-3.08,0-5.18,2.2-5.18,5.28s2.09,5.28,5.18,5.28c2.31,0,4.08-1.21,4.82-3.08h4.25c-.85,4.15-4.33,7.02-9.08,7.02-5.53,0-9.43-3.9-9.43-9.22Z"/>
        <path class="cls-3" d="M153.58.25h4.22v25.18h-4.22V.25Z"/>
        <path class="cls-3" d="M160.53,2.84c0-1.63,1.17-2.84,2.8-2.84s2.8,1.21,2.8,2.84-1.17,2.8-2.8,2.8-2.8-1.17-2.8-2.8ZM161.21,7.91h4.22v17.52h-4.22V7.91Z"/>
        <path class="cls-3" d="M168.23,16.31c0-5.85,3.48-8.87,8.65-8.87s8.65,2.98,8.65,8.87v9.11h-4.22v-9.11c0-3.33-1.77-4.93-4.43-4.93s-4.43,1.6-4.43,4.93v9.11h-4.22v-9.11Z"/>
        <path class="cls-3" d="M187.63,27.34h4.26c.71,1.63,2.41,2.38,4.65,2.38,3.12,0,5.07-1.45,5.07-5.53v-1.52c-1.21,1.95-3.3,3.01-5.92,3.01-4.18,0-8.65-2.8-8.65-9.01,0-5.32,3.9-9.22,9.43-9.22s9.36,3.69,9.36,9.36v7.23c0,6.7-4.15,9.33-9.29,9.33-4.36,0-7.8-1.88-8.9-6.03ZM201.6,16.67c0-3.08-2.06-5.28-5.14-5.28s-5.18,2.2-5.18,5.28,2.09,5.07,5.18,5.07,5.14-1.99,5.14-5.07Z"/>
      </g>
      <path class="cls-3" d="M24.02,31.51l3.21-3.27c.59-.59.99-1.16.99-1.74,0-.67-.28-1.15-.93-1.15s-.93.46-.93,1.16v.22h-2.33v-.14c0-2.08,1.24-3.41,3.27-3.41s3.27,1.41,3.27,3.34c0,1.29-.61,2.1-1.6,3.07l-1.89,1.85h3.37v2.09h-6.44v-2.02Z"/>
    </g>
  </g>
</svg>